<svg viewBox="0 0 400 160" xmlns="http://www.w3.org/2000/svg" preserveAspectRatio="xMidYMid meet">
<defs>
<linearGradient id="blueGreenGradient" x1="0%" y1="0%" x2="100%" y2="0%">
<stop offset="0%" style="stop-color:#3b82f6;stop-opacity:1"/>
<stop offset="100%" style="stop-color:#10b981;stop-opacity:1"/>
</linearGradient>
<linearGradient id="darkBg" x1="0%" y1="0%" x2="100%" y2="100%">
<stop offset="0%" style="stop-color:#1e293b;stop-opacity:0.95"/>
<stop offset="100%" style="stop-color:#0f172a;stop-opacity:0.95"/>
</linearGradient>
<filter id="logoGlow">
<feGaussianBlur stdDeviation="4" result="coloredBlur"/>
<feMerge>
<feMergeNode in="coloredBlur"/>
<feMergeNode in="SourceGraphic"/>
</feMerge>
</filter>
</defs>
<rect x="5" y="5" width="390" height="150" rx="20" fill="url(#darkBg)" stroke="url(#blueGreenGradient)" stroke-width="4" filter="url(#logoGlow)" opacity="0.95"/>
<rect x="10" y="10" width="380" height="140" rx="15" fill="none" stroke="rgba(59, 130, 246, 0.3)" stroke-width="2" opacity="0.6"/>
<g transform="translate(80, 80)">
<path d="M0 -30L-16 -22C-16 -22 -16 -6 -16 10C-16 18 0 26 0 26C0 26 16 18 16 10C16 -6 16 -22 16 -22L0 -30Z" fill="url(#blueGreenGradient)" opacity="0.9" filter="url(#logoGlow)"/>
<path d="M0 -24L-12 -18C-12 -18 -12 -4 -12 8C-12 14 0 20 0 20C0 20 12 14 12 8C12 -4 12 -18 12 -18L0 -24Z" fill="rgba(255, 255, 255, 0.2)"/>
<path d="M-8 -2L-4 2L10 -12" stroke="white" stroke-width="4" stroke-linecap="round" stroke-linejoin="round" fill="none" opacity="0.95"/>
<g transform="translate(0, 14)">
<rect x="-4" y="0" width="8" height="5" rx="1" fill="white" opacity="0.9"/>
<path d="M-2.5 0V-2.5C-2.5 -4 -1.2 -5.5 0 -5.5C1.2 -5.5 2.5 -4 2.5 -2.5V0" stroke="white" stroke-width="1.2" fill="none" opacity="0.9"/>
</g>
</g>
<text x="200" y="70" font-family="Arial, sans-serif" font-size="28" font-weight="900" fill="white" text-anchor="middle" filter="url(#logoGlow)">SecureNexus</text>
<text x="200" y="95" font-family="Arial, sans-serif" font-size="12" font-weight="600" fill="#cbd5e1" text-anchor="middle" opacity="0.9">Infrastructure Security Platform</text>
<circle cx="320" cy="50" r="2" fill="url(#blueGreenGradient)" opacity="0.6"/>
<circle cx="330" cy="60" r="1.5" fill="url(#blueGreenGradient)" opacity="0.4"/>
<circle cx="340" cy="70" r="1" fill="url(#blueGreenGradient)" opacity="0.3"/>
</svg>